<svg width="32" height="32" viewBox="0 0 32 32" fill="none" xmlns="http://www.w3.org/2000/svg">
  <rect width="32" height="32" rx="8" fill="#FF3B30"/>
  <path d="M16 6C10.477 6 6 10.477 6 16C6 21.523 10.477 26 16 26C21.523 26 26 21.523 26 16C26 10.477 21.523 6 16 6ZM13 21C12.448 21 12 20.552 12 20V12C12 11.448 12.448 11 13 11C13.552 11 14 11.448 14 12V20C14 20.552 13.552 21 13 21ZM19 21C18.448 21 18 20.552 18 20V12C18 11.448 18.448 11 19 11C19.552 11 20 11.448 20 12V20C20 20.552 19.552 21 19 21Z" fill="white"/>
</svg>

